<?xml version="1.0" standalone="no"?><!DOCTYPE svg PUBLIC "-//W3C//DTD SVG 1.1//EN" "http://www.w3.org/Graphics/SVG/1.1/DTD/svg11.dtd"><svg stroke-width="1.5" viewBox="0 0 24 24" fill="none" version="1.1" xmlns="http://www.w3.org/2000/svg" xmlns:xlink="http://www.w3.org/1999/xlink"><path d="M21 8a5 5 0 1 1-10 0 5 5 0 0 1 10 0Z" stroke="#E8009F"/><path d="M10 15.5a3.5 3.5 0 1 1-7 0 3.5 3.5 0 0 1 7 0Z" stroke="#E8009F"/><path d="M19 18.5a2.5 2.5 0 1 1-5 0 2.5 2.5 0 0 1 5 0Z" stroke="#E8009F"/><path opacity="0.1" fill-rule="evenodd" clip-rule="evenodd" d="M11 8a5 5 0 1 1 10 0 5 5 0 0 1-10 0Z" fill="#E8009F"/><path opacity="0.1" fill-rule="evenodd" clip-rule="evenodd" d="M14 18.5a2.5 2.5 0 1 1 5 0 2.5 2.5 0 0 1-5 0Z" fill="#E8009F"/></svg>