<svg xmlns="http://www.w3.org/2000/svg" version="1.1" width="96" height="96" viewbox="0 0 96 96"><rect x="0" y="0" width="96" height="96" fill="#FFFFFF"></rect><g transform="translate(29.352, 62.664)"><path d="M33.98-28.27L33.98-28.27Q34.66-28.27 34.66-26.69L34.66-26.69Q34.66-25.82 34.46-24.86L34.46-24.86Q34.08-22.46 32.81-20.57 31.54-18.67 29.76-17.81L29.76-17.81Q28.32-17.09 26.98-17.09L26.98-17.09 26.59-17.09Q25.25-17.09 24.19-17.47L24.19-17.47Q21.98-18.24 18.34-21.46L18.34-21.46Q15.74-23.71 14.59-24.38L14.59-24.38Q12.58-25.58 10.7-25.58L10.7-25.58Q8.54-25.58 6.94-24.34 5.33-23.09 4.56-21.26L4.56-21.26Q4.13-20.06 3.98-18.53L3.98-18.53Q3.89-17.04 3.31-17.04L3.31-17.04Q2.64-17.04 2.64-18.62L2.64-18.62Q2.64-19.15 2.69-19.49L2.69-19.49Q3.07-23.04 4.94-25.39 6.82-27.74 9.65-28.18L9.65-28.18Q10.13-28.27 10.66-28.27L10.66-28.27Q11.57-28.27 12.14-28.13L12.14-28.13Q13.39-27.84 14.69-27.12 15.98-26.4 16.75-25.78 17.52-25.15 18.96-23.86L18.96-23.86Q21.55-21.6 22.7-20.93L22.7-20.93Q24.72-19.73 26.59-19.73L26.59-19.73Q28.7-19.73 30.34-20.93L30.34-20.93Q31.63-21.84 32.47-23.5 33.31-25.15 33.31-26.88L33.31-26.88Q33.31-27.46 33.53-27.86 33.74-28.27 33.98-28.27ZM2.69-11.33L2.69-11.33Q2.69-11.95 3.36-12.29L3.36-12.29 33.94-12.29Q34.66-11.9 34.66-11.33L34.66-11.33Q34.66-10.8 33.98-10.42L33.98-10.42 18.72-10.37 3.46-10.37Q2.69-10.61 2.69-11.33ZM2.69-2.02L2.69-2.02Q2.69-2.74 3.46-2.98L3.46-2.98 33.98-2.98Q34.03-2.93 34.2-2.81 34.37-2.69 34.44-2.62 34.51-2.54 34.58-2.38 34.66-2.21 34.66-2.02L34.66-2.02Q34.66-1.44 33.94-1.06L33.94-1.06 3.36-1.06Q2.69-1.39 2.69-2.02Z" fill="#404040"></path></g></svg>