<svg xmlns="http://www.w3.org/2000/svg" version="1.1" width="96" height="96" viewbox="0 0 96 96"><rect x="0" y="0" width="96" height="96" fill="#FFFFFF"></rect><g transform="translate(34.32, 64.944)"><path d="M4.32-16.94L4.32-16.94Q4.32-18.38 4.78-19.75 5.23-21.12 6-22.22L6-22.22 2.83-25.49 5.18-27.74 8.35-24.67Q9.46-25.49 10.85-25.92 12.24-26.35 13.73-26.35L13.73-26.35Q15.22-26.35 16.54-25.92 17.86-25.49 19.01-24.67L19.01-24.67 22.22-27.74 24.53-25.49 21.46-22.27Q22.18-21.17 22.66-19.8 23.14-18.43 23.14-16.94L23.14-16.94Q23.14-13.92 21.46-11.57L21.46-11.57 24.48-8.4 22.22-6.14 19.01-9.22Q17.9-8.45 16.56-8.02 15.22-7.58 13.73-7.58L13.73-7.58Q10.66-7.58 8.35-9.26L8.35-9.26 5.18-6.19 2.88-8.45 6-11.62Q5.23-12.72 4.78-14.09 4.32-15.46 4.32-16.94ZM7.54-16.94L7.54-16.94Q7.54-15.22 8.35-13.82 9.17-12.43 10.58-11.59 12-10.75 13.73-10.75L13.73-10.75Q15.5-10.75 16.9-11.59 18.29-12.43 19.13-13.82 19.97-15.22 19.97-16.94L19.97-16.94Q19.97-18.72 19.13-20.14 18.29-21.55 16.9-22.39 15.5-23.23 13.73-23.23L13.73-23.23Q12-23.23 10.58-22.39 9.17-21.55 8.35-20.14 7.54-18.72 7.54-16.94Z" fill="#404040"></path></g></svg>