<svg xmlns="http://www.w3.org/2000/svg" version="1.1" width="96" height="96" viewbox="0 0 96 96"><rect x="0" y="0" width="96" height="96" fill="#FFFFFF"></rect><g transform="translate(33.071999999999996, 59.73599999999999)"><path d="M19.63-33.02L19.63-33.02Q19.78-33.31 20.59-33.31L20.59-33.31 21.22-33.31Q21.5-33.02 21.5-32.93L21.5-32.93Q21.5-32.69 20.06-26.98 18.62-21.26 18.62-21.22L18.62-21.22Q21.55-20.69 22.9-20.06L22.9-20.06Q26.59-18.24 27.55-14.5L27.55-14.5Q27.79-13.63 27.79-12.48L27.79-12.48Q27.79-8.21 24.22-4.54 20.64-0.86 15.55 0.19L15.55 0.19Q14.21 0.48 13.39 0.48L13.39 0.48 13.2 0.48 12.05 5.04Q10.9 9.65 10.8 9.74L10.8 9.74Q10.66 9.84 10.03 9.84L10.03 9.84Q9.07 9.84 9.07 9.5L9.07 9.5Q9.07 9.31 11.23 0.53L11.23 0.53Q11.23 0.48 10.85 0.48L10.85 0.48Q10.75 0.48 10.42 0.41 10.08 0.34 9.84 0.29L9.84 0.29Q6.91-0.24 4.92-1.94 2.93-3.65 2.3-6.14L2.3-6.14Q2.06-6.96 2.06-8.21L2.06-8.21Q2.06-10.56 3.26-12.91L3.26-12.91Q4.56-15.41 6.98-17.38 9.41-19.34 12.38-20.35L12.38-20.35Q14.93-21.17 16.42-21.17L16.42-21.17Q16.66-21.17 16.7-21.36L16.7-21.36Q16.7-21.5 18.17-27.24 19.63-32.98 19.63-33.02ZM5.86-7.2L5.86-7.2Q5.86-4.61 7.34-3.07 8.83-1.54 11.38-1.3L11.38-1.3 11.71-1.3 13.97-10.32 16.18-19.39Q16.08-19.39 15.7-19.3L15.7-19.3Q10.75-18.53 8.16-14.59L8.16-14.59Q7.2-13.2 6.53-11.14 5.86-9.07 5.86-7.2ZM24-13.54L24-13.54Q24-15.94 22.63-17.42 21.26-18.91 19.01-19.3L19.01-19.3Q18.34-19.39 18.29-19.39L18.29-19.39 18.14-19.39 15.94-10.42 13.63-1.39Q13.63-1.3 13.82-1.34L13.82-1.34Q15.84-1.58 17.14-2.26L17.14-2.26Q22.51-4.66 23.76-11.42L23.76-11.42Q24-12.72 24-13.54Z" fill="#404040"></path></g></svg>