<svg xmlns="http://www.w3.org/2000/svg" version="1.1" width="96" height="96" viewbox="0 0 96 96"><rect x="0" y="0" width="96" height="96" fill="#FFFFFF"></rect><g transform="translate(24, 62.388000000000005)"><path d="M2.59-2.88L2.59-2.88Q3.74-2.88 4.61-2.06 5.47-1.25 5.47 0.05L5.47 0.05Q5.47 0.96 4.82 1.78 4.18 2.59 3.17 2.83L3.17 2.83Q2.5 2.98 1.92 2.83L1.92 2.83Q0.96 2.54 0.29 1.78-0.38 1.01-0.38 0L-0.38 0Q-0.38-1.15 0.46-2.02 1.3-2.88 2.59-2.88ZM24-17.28L24-17.28Q25.15-17.28 26.02-16.46 26.88-15.65 26.88-14.35L26.88-14.35Q26.88-13.44 26.26-12.62 25.63-11.81 24.67-11.57L24.67-11.57Q23.95-11.42 23.33-11.57L23.33-11.57Q22.42-11.86 21.77-12.62 21.12-13.39 21.12-14.4L21.12-14.4Q21.12-15.55 21.94-16.42 22.75-17.28 24-17.28ZM45.5-31.68L45.5-31.68Q46.66-31.68 47.52-30.86 48.38-30.05 48.38-28.75L48.38-28.75Q48.38-27.84 47.74-27.02 47.09-26.21 46.08-25.97L46.08-25.97Q45.41-25.82 44.83-25.97L44.83-25.97Q43.87-26.26 43.2-27.02 42.53-27.79 42.53-28.8L42.53-28.8Q42.53-29.95 43.37-30.82 44.21-31.68 45.5-31.68Z" fill="#404040"></path></g></svg>