<svg xmlns="http://www.w3.org/2000/svg" version="1.1" width="96" height="96" viewbox="0 0 96 96"><rect x="0" y="0" width="96" height="96" fill="#FFFFFF"></rect><g transform="translate(29.352, 60.912)"><path d="M33.98-23.18L33.98-23.18Q34.66-23.18 34.66-21.7L34.66-21.7Q34.66-18.96 33.17-17.02 31.68-15.07 29.23-14.3L29.23-14.3Q27.94-13.87 26.64-13.87L26.64-13.87Q25.06-13.87 23.28-14.54L23.28-14.54Q21.79-15.07 18.43-17.28L18.43-17.28Q16.75-18.29 16.08-18.77L16.08-18.77Q13.92-19.97 12-20.4L12-20.4Q11.66-20.45 10.75-20.45L10.75-20.45Q8.35-20.45 6.48-19.25L6.48-19.25Q4.13-17.76 3.98-15.26L3.98-15.26Q3.89-13.87 3.31-13.87L3.31-13.87Q2.64-13.87 2.64-15.31L2.64-15.31Q2.64-15.89 2.83-16.94L2.83-16.94Q3.26-19.06 4.63-20.59 6-22.13 8.06-22.75L8.06-22.75Q9.02-23.14 9.84-23.14L9.84-23.14Q9.94-23.14 10.22-23.16 10.51-23.18 10.7-23.18L10.7-23.18Q12.77-23.18 15.17-22.03L15.17-22.03Q15.26-21.98 21.26-18.29L21.26-18.29Q23.38-17.09 25.34-16.66L25.34-16.66Q25.63-16.61 26.54-16.61L26.54-16.61Q28.94-16.61 30.82-17.81L30.82-17.81Q33.02-19.2 33.31-21.79L33.31-21.79Q33.31-22.27 33.5-22.73 33.7-23.18 33.98-23.18ZM33.31-10.56Q33.31-11.95 33.98-11.95 34.66-11.95 34.66-10.42L34.66-10.42Q34.66-9.65 34.46-8.88L34.46-8.88Q33.89-6.19 31.8-4.42 29.71-2.64 26.64-2.64L26.64-2.64Q25.06-2.64 23.28-3.31L23.28-3.31Q21.79-3.84 18.43-6.05L18.43-6.05Q16.75-7.06 16.08-7.54L16.08-7.54Q13.92-8.74 12-9.17L12-9.17Q11.66-9.22 10.75-9.22L10.75-9.22Q8.35-9.22 6.48-8.02L6.48-8.02Q4.13-6.53 3.98-4.03L3.98-4.03Q3.89-2.64 3.31-2.64L3.31-2.64Q2.64-2.64 2.64-4.08L2.64-4.08Q2.64-4.66 2.83-5.71L2.83-5.71Q3.26-7.82 4.63-9.36 6-10.9 8.06-11.52L8.06-11.52Q9.02-11.9 9.84-11.9L9.84-11.9Q9.94-11.9 10.22-11.93 10.51-11.95 10.7-11.95L10.7-11.95Q12.77-11.95 15.17-10.8L15.17-10.8Q15.26-10.75 21.26-7.06L21.26-7.06Q23.38-5.81 25.34-5.42L25.34-5.42Q25.63-5.38 26.54-5.38L26.54-5.38Q28.94-5.38 30.82-6.58L30.82-6.58Q33.02-7.97 33.31-10.56L33.31-10.56Z" fill="#404040"></path></g></svg>