<svg xmlns="http://www.w3.org/2000/svg" version="1.1" width="96" height="96" viewbox="0 0 96 96"><rect x="0" y="0" width="96" height="96" fill="#FFFFFF"></rect><g transform="translate(26.424, 60)"><path d="M39.94-2.4Q39.98-2.4 39.98-12 39.98-21.6 39.94-21.6 39.89-21.6 31.63-16.82 23.38-12.05 23.38-12 23.38-11.95 31.61-7.2 39.84-2.45 39.94-2.4L39.94-2.4ZM41.9-23.52L41.9-0.48Q41.52 0.24 40.94 0.24L40.94 0.24Q40.85 0.24 40.56 0.14L40.56 0.14Q40.46 0.1 36.53-2.18 32.59-4.46 27.77-7.25 22.94-10.03 21.55-10.85L21.55-10.85Q21.5-10.8 12.48-5.52L12.48-5.52Q2.45 0.24 2.06 0.24L2.06 0.24Q1.97 0.24 1.92 0.19L1.92 0.19Q1.82 0.1 1.78 0.1L1.78 0.1Q1.49 0 1.25-0.53L1.25-0.53 1.25-23.47Q1.49-24 1.78-24.1L1.78-24.1Q1.82-24.1 1.92-24.19L1.92-24.19Q1.97-24.24 2.06-24.24L2.06-24.24Q2.45-24.24 12.48-18.48L12.48-18.48Q20.06-14.06 21.55-13.15L21.55-13.15Q23.04-14.02 27.77-16.75 32.5-19.49 36.48-21.79 40.46-24.1 40.56-24.14L40.56-24.14Q40.85-24.24 40.94-24.24L40.94-24.24Q41.52-24.24 41.9-23.52L41.9-23.52ZM19.78-12L19.78-12Q17.42-13.34 13.2-15.79 8.98-18.24 6.48-19.7 3.98-21.17 3.22-21.6L3.22-21.6Q3.17-21.6 3.17-12 3.17-2.4 3.22-2.4L3.22-2.4Q3.31-2.45 11.54-7.2 19.78-11.95 19.78-12Z" fill="#404040"></path></g></svg>