<?xml version="1.0" standalone="no"?><!DOCTYPE svg PUBLIC "-//W3C//DTD SVG 1.1//EN" "http://www.w3.org/Graphics/SVG/1.1/DTD/svg11.dtd"><svg stroke-width="1.25" viewBox="0 0 24 24" stroke="#6EFFB6" fill="none" stroke-linecap="round" stroke-linejoin="round" version="1.1" xmlns="http://www.w3.org/2000/svg" xmlns:xlink="http://www.w3.org/1999/xlink"><path stroke="none" d="M0 0h24v24H0z" fill="none"/><circle cx="12" cy="5" r="2"/><path d="M20 12.5v4.75a.734.734 0 0 1-.055.325.704.704 0 0 1-.348.366l-5.462 2.58a4.998 4.998 0 0 1-4.27 0l-5.462-2.58a.705.705 0 0 1-.401-.691L4 12.5"/><path d="m4.431 12.216 5.634-2.332a5.065 5.065 0 0 1 3.87 0l5.634 2.332a.692.692 0 0 1 .028 1.269l-5.462 2.543a5.064 5.064 0 0 1-4.27 0l-5.462-2.543a.691.691 0 0 1 .028-1.27z"/><line x1="12" y1="7" x2="12" y2="13"/></svg>