<svg xmlns="http://www.w3.org/2000/svg" version="1.1" width="96" height="96" viewbox="0 0 96 96"><rect x="0" y="0" width="96" height="96" fill="#FFFFFF"></rect><g transform="translate(34.175999999999995, 65.136)"><path d="M16.94-34.75L16.94-30.91Q18.77-30.86 20.42-30.46 22.08-30.05 23.28-29.52L23.28-29.52 22.03-26.02Q20.78-26.5 19.2-26.88 17.62-27.26 16.32-27.26L16.32-27.26Q12.38-27.26 10.54-24.84 8.69-22.42 8.69-17.42L8.69-17.42Q8.69-12.43 10.58-10.15 12.48-7.87 16.13-7.87L16.13-7.87Q18.24-7.87 19.8-8.28 21.36-8.69 22.85-9.31L22.85-9.31 22.85-5.62Q21.55-4.99 20.16-4.63 18.77-4.27 16.9-4.18L16.9-4.18 16.9 0.48 13.68 0.48 13.68-4.32Q10.85-4.75 8.76-6.19 6.67-7.63 5.52-10.37 4.37-13.1 4.37-17.38L4.37-17.38Q4.37-21.74 5.52-24.53 6.67-27.31 8.78-28.8 10.9-30.29 13.68-30.72L13.68-30.72 13.68-34.75 16.94-34.75Z" fill="#404040"></path></g></svg>