<svg xmlns="http://www.w3.org/2000/svg" version="1.1" width="96" height="96" viewbox="0 0 96 96"><rect x="0" y="0" width="96" height="96" fill="#FFFFFF"></rect><g transform="translate(29.328, 60)"><path d="M7.25-23.28L7.25-23.28Q12.19-27.98 18.43-27.98L18.43-27.98Q25.2-27.98 30.05-23.28L30.05-23.28Q34.66-18.34 34.66-12L34.66-12Q34.66-10.94 34.56-10.27L34.56-10.27Q33.98-5.28 30.96-1.7 27.94 1.87 23.42 3.26L23.42 3.26Q21.12 3.98 18.72 3.98L18.72 3.98Q14.83 3.98 11.38 2.26L11.38 2.26Q7.92 0.48 5.59-2.76 3.26-6 2.74-10.27L2.74-10.27Q2.69-10.61 2.69-12 2.69-13.39 2.74-13.73L2.74-13.73Q3.46-19.3 7.25-23.28ZM4.61-12.96L17.71-12.96 17.71-26.02 17.47-26.02Q15.5-25.92 13.39-25.06L13.39-25.06Q9.74-23.62 7.37-20.42 4.99-17.23 4.61-13.34L4.61-13.34 4.61-12.96ZM32.69-12.96L32.69-13.34Q32.16-18.43 28.7-21.86 25.25-25.3 20.5-25.92L20.5-25.92Q19.82-26.02 19.78-26.02L19.78-26.02 19.63-26.02 19.63-12.96 32.69-12.96ZM17.57 2.02L17.71 2.02 17.71-11.04 4.61-11.04 4.61-10.66Q5.14-5.57 8.59-2.14 12.05 1.3 16.8 1.92L16.8 1.92Q17.47 2.02 17.57 2.02L17.57 2.02ZM32.69-10.66L32.69-10.66 32.69-11.04 19.63-11.04 19.63 2.02 19.78 2.02Q19.82 2.02 20.5 1.92L20.5 1.92Q25.25 1.3 28.7-2.14 32.16-5.57 32.69-10.66Z" fill="#404040"></path></g></svg>