<svg xmlns="http://www.w3.org/2000/svg" version="1.1" width="96" height="96" viewbox="0 0 96 96"><rect x="0" y="0" width="96" height="96" fill="#FFFFFF"></rect><g transform="translate(29.328, 62.303999999999995)"><path d="M15.31-3.36L15.31-3.02Q15.12-1.15 13.42-0.05 11.71 1.06 9.46 1.06L9.46 1.06Q6.86 1.06 4.66-0.77L4.66-0.77Q2.21-2.74 1.44-6.77L1.44-6.77Q1.34-7.54 1.34-8.35L1.34-8.35Q1.34-11.71 2.78-14.16 4.22-16.61 6.43-17.33L6.43-17.33Q7.3-17.66 8.4-17.66L8.4-17.66Q10.75-17.66 12.38-16.03L12.38-16.03Q12.48-15.94 12.58-15.84 12.67-15.74 12.77-15.7L12.77-15.7 12.82-15.65Q13.06-16.18 13.34-16.75L13.34-16.75 13.82-17.81Q12.24-19.39 11.86-19.97L11.86-19.97Q10.22-22.42 10.22-25.54L10.22-25.54Q10.22-26.78 10.32-27.22L10.32-27.22Q10.9-30.19 12.79-32.28 14.69-34.37 17.62-34.8L17.62-34.8Q17.9-34.85 18.67-34.85L18.67-34.85Q20.69-34.85 22.18-34.03L22.18-34.03Q26.11-32.11 27.02-27.22L27.02-27.22Q27.12-26.69 27.12-25.54 27.12-24.38 27.02-23.86L27.02-23.86Q26.4-20.3 23.76-18.05L23.76-18.05 23.52-17.81 24-16.75 24.53-15.65 24.58-15.7Q24.67-15.74 24.77-15.84 24.86-15.94 24.96-16.03L24.96-16.03Q26.59-17.66 29.09-17.66L29.09-17.66Q30.53-17.66 31.68-16.99L31.68-16.99Q33.65-16.03 34.82-13.73 36-11.42 36-8.35L36-8.35Q36-5.86 34.94-3.74L34.94-3.74Q33.94-1.63 32.09-0.29 30.24 1.06 27.79 1.06L27.79 1.06Q25.49 1.06 23.88 0 22.27-1.06 22.03-3.02L22.03-3.02 22.03-3.36 19.63-3.36 19.63-2.98Q19.63 0.62 20.74 4.27L20.74 4.27Q20.98 5.14 20.98 5.38L20.98 5.38Q20.98 5.81 20.45 6.14L20.45 6.14Q20.26 6.24 18.67 6.24 17.09 6.24 16.9 6.14L16.9 6.14Q16.37 5.81 16.37 5.33L16.37 5.33Q16.37 5.09 16.61 4.27L16.61 4.27Q17.71 0.62 17.71-2.98L17.71-2.98 17.71-3.36 15.31-3.36Z" fill="#404040"></path></g></svg>