<svg xmlns="http://www.w3.org/2000/svg" version="1.1" width="96" height="96" viewbox="0 0 96 96"><rect x="0" y="0" width="96" height="96" fill="#FFFFFF"></rect><g transform="translate(28.032, 65.136)"><path d="M19.97 0.48L19.97 0.48Q16.13 0.48 12.91-0.82 9.7-2.11 7.32-4.49 4.94-6.86 3.65-10.08 2.35-13.3 2.35-17.14L2.35-17.14Q2.35-20.98 3.65-24.19 4.94-27.41 7.32-29.78 9.7-32.16 12.91-33.46 16.13-34.75 19.97-34.75L19.97-34.75Q23.62-34.75 26.81-33.46 30-32.16 32.42-29.78 34.85-27.41 36.22-24.19 37.58-20.98 37.58-17.14L37.58-17.14Q37.58-13.3 36.29-10.08 34.99-6.86 32.62-4.49 30.24-2.11 27.02-0.82 23.81 0.48 19.97 0.48ZM19.97-2.06L19.97-2.06Q23.04-2.06 25.73-3.17 28.42-4.27 30.48-6.31 32.54-8.35 33.7-11.09 34.85-13.82 34.85-17.14L34.85-17.14Q34.85-20.26 33.74-22.99 32.64-25.73 30.65-27.79 28.66-29.86 25.94-31.03 23.23-32.21 19.97-32.21L19.97-32.21Q15.65-32.21 12.26-30.26 8.88-28.32 6.96-24.94 5.04-21.55 5.04-17.14L5.04-17.14Q5.04-14.02 6.14-11.28 7.25-8.54 9.24-6.48 11.23-4.42 13.97-3.24 16.7-2.06 19.97-2.06ZM20.69-6.38L20.69-6.38Q15.94-6.38 13.58-9.34 11.23-12.29 11.23-17.14L11.23-17.14Q11.23-20.26 12.34-22.68 13.44-25.1 15.6-26.47 17.76-27.84 20.88-27.84L20.88-27.84Q24-27.84 26.78-26.4L26.78-26.4 25.39-23.47Q22.99-24.72 20.93-24.72L20.93-24.72Q18.1-24.72 16.54-22.7 14.98-20.69 14.98-17.14L14.98-17.14Q14.98-13.49 16.34-11.5 17.71-9.5 20.88-9.5L20.88-9.5Q21.98-9.5 23.35-9.82 24.72-10.13 25.92-10.61L25.92-10.61 25.92-7.54Q24.77-7.06 23.57-6.72 22.37-6.38 20.69-6.38Z" fill="#404040"></path></g></svg>