<svg xmlns="http://www.w3.org/2000/svg" version="1.1" width="96" height="96" viewbox="0 0 96 96"><rect x="0" y="0" width="96" height="96" fill="#FFFFFF"></rect><g transform="translate(29.328, 61.56)"><path d="M17.76-34.27L17.76-34.27Q17.76-34.46 18.07-34.68 18.38-34.9 18.67-34.9L18.67-34.9Q18.91-34.9 19.08-34.8 19.25-34.7 19.42-34.46 19.58-34.22 19.68-34.08 19.78-33.94 19.97-33.58 20.16-33.22 20.21-33.07L20.21-33.07Q25.73-22.32 34.03-14.59L34.03-14.59Q34.7-13.97 34.7-13.54 34.7-13.1 34.03-12.48L34.03-12.48Q25.34-4.37 19.49 7.34L19.49 7.34Q19.3 7.78 18.67 7.78 18.05 7.78 17.86 7.34L17.86 7.34Q12.19-4.03 4.27-11.57L4.27-11.57Q3.7-12.1 3.07-12.72L3.07-12.72Q2.64-13.06 2.64-13.54 2.64-14.02 3.07-14.35L3.07-14.35Q4.46-15.6 6.1-17.33L6.1-17.33Q12.48-24.1 17.14-33.07L17.14-33.07Q17.76-34.22 17.76-34.27ZM32.3-13.54L31.44-14.35Q24.24-21.41 18.67-31.78L18.67-31.78Q18.53-31.58 18.43-31.34L18.43-31.34Q13.15-21.46 5.9-14.35L5.9-14.35 5.04-13.54 5.9-12.72Q13.1-5.66 18.67 4.7L18.67 4.7Q18.82 4.51 18.91 4.27L18.91 4.27Q24.19-5.62 31.44-12.72L31.44-12.72 32.3-13.54Z" fill="#404040"></path></g></svg>