<svg xmlns="http://www.w3.org/2000/svg" version="1.1" width="96" height="96" viewbox="0 0 96 96"><rect x="0" y="0" width="96" height="96" fill="#FFFFFF"></rect><g transform="translate(17.256, 70.104)"><path d="M9.31-33.6L9.31-33.6Q8.06-33.6 7.22-34.46 6.38-35.33 6.38-36.48L6.38-36.48Q6.38-37.54 7.03-38.3 7.68-39.07 8.64-39.31L8.64-39.31Q9.26-39.5 9.94-39.31L9.94-39.31Q10.9-39.12 11.54-38.3 12.19-37.49 12.19-36.53L12.19-36.53Q12.19-35.28 11.33-34.44 10.46-33.6 9.31-33.6ZM30.77-19.2L30.77-19.2Q29.52-19.2 28.68-20.06 27.84-20.93 27.84-22.08L27.84-22.08Q27.84-23.14 28.49-23.9 29.14-24.67 30.1-24.91L30.1-24.91Q30.72-25.1 31.39-24.91L31.39-24.91Q32.35-24.72 33-23.9 33.65-23.09 33.65-22.13L33.65-22.13Q33.65-20.88 32.78-20.04 31.92-19.2 30.77-19.2ZM52.22-4.8L52.22-4.8Q50.98-4.8 50.14-5.66 49.3-6.53 49.3-7.68L49.3-7.68Q49.3-8.74 49.94-9.5 50.59-10.27 51.55-10.51L51.55-10.51Q52.18-10.7 52.85-10.51L52.85-10.51Q53.81-10.32 54.46-9.5 55.1-8.69 55.1-7.73L55.1-7.73Q55.1-6.48 54.24-5.64 53.38-4.8 52.22-4.8Z" fill="#404040"></path></g></svg>