<svg xmlns="http://www.w3.org/2000/svg" version="1.1" width="96" height="96" viewbox="0 0 96 96"><rect x="0" y="0" width="96" height="96" fill="#FFFFFF"></rect><g transform="translate(30.768, 73.824)"><path d="M18.48-17.38L15.6-17.38 15.6-34.27 20.11-34.27 24.62-21.26 29.28-34.27 33.65-34.27 33.65-17.38 30.58-17.38 30.58-27.17Q30.58-27.55 30.62-28.68 30.67-29.81 30.72-30.38L30.72-30.38 30.53-30.38 25.68-17.38 23.14-17.38 18.53-30.38 18.34-30.38Q18.38-29.62 18.43-28.66 18.48-27.7 18.48-27.41L18.48-27.41 18.48-17.38ZM8.69-17.38L5.66-17.38 5.66-31.68 0.82-31.68 0.82-34.27 13.58-34.27 13.58-31.68 8.69-31.68 8.69-17.38Z" fill="#404040"></path></g></svg>