<svg xmlns="http://www.w3.org/2000/svg" version="1.1" width="96" height="96" viewbox="0 0 96 96"><rect x="0" y="0" width="96" height="96" fill="#FFFFFF"></rect><g transform="translate(24, 62.616)"><path d="M35.9-27.89L35.9-27.89Q37.2-27.89 38.04-27.05 38.88-26.21 38.88-24.91L38.88-24.91Q38.88-23.71 38.02-22.92 37.15-22.13 35.95-22.13L35.95-22.13Q34.8-22.13 33.96-22.92 33.12-23.71 33.12-24.91L33.12-24.91Q33.12-26.16 33.89-27.02 34.66-27.89 35.9-27.89ZM26.88-4.22L26.88-4.22Q26.88-2.98 26.04-2.16 25.2-1.34 23.95-1.34L23.95-1.34Q22.8-1.34 21.96-2.18 21.12-3.02 21.12-4.22 21.12-5.42 21.96-6.26 22.8-7.1 24-7.1 25.2-7.1 26.04-6.26 26.88-5.42 26.88-4.22ZM14.88-25.1L14.88-25.1Q14.88-23.81 14.04-22.97 13.2-22.13 11.95-22.13L11.95-22.13Q10.75-22.13 9.94-22.94 9.12-23.76 9.12-25.01L9.12-25.01Q9.12-26.21 9.89-27.05 10.66-27.89 11.88-27.89 13.1-27.89 13.99-27.12 14.88-26.35 14.88-25.1Z" fill="#404040"></path></g></svg>