<?xml version="1.0" standalone="no"?><!DOCTYPE svg PUBLIC "-//W3C//DTD SVG 1.1//EN" "http://www.w3.org/Graphics/SVG/1.1/DTD/svg11.dtd"><svg stroke-width="1.5" viewBox="0 0 24 24" stroke="#00E87C" fill="none" stroke-linecap="round" stroke-linejoin="round" version="1.1" xmlns="http://www.w3.org/2000/svg" xmlns:xlink="http://www.w3.org/1999/xlink"><path stroke="none" d="M0 0h24v24H0z" fill="none"/><path d="M11.667 6C9.177 6 7.623 7.222 7 9.667c.933-1.223 2.023-1.68 3.267-1.375.71.174 1.217.68 1.778 1.24.916.912 2 1.968 4.288 1.968 2.49 0 4.044-1.222 4.667-3.667-.933 1.223-2.023 1.68-3.267 1.375-.71-.174-1.217-.68-1.778-1.24C15.039 7.056 13.98 6 11.667 6zm-4 6.5c-2.49 0-4.044 1.222-4.667 3.667.933-1.223 2.023-1.68 3.267-1.375.71.174 1.217.68 1.778 1.24.916.912 1.975 1.968 4.288 1.968 2.49 0 4.044-1.222 4.667-3.667-.933 1.223-2.023 1.68-3.267 1.375-.71-.174-1.217-.68-1.778-1.24-.916-.912-1.975-1.968-4.288-1.968z"/></svg>