<?xml version="1.0" standalone="no"?><!DOCTYPE svg PUBLIC "-//W3C//DTD SVG 1.1//EN" "http://www.w3.org/Graphics/SVG/1.1/DTD/svg11.dtd"><svg stroke-width="1.25" viewBox="0 0 24 24" stroke="#6EFFB6" fill="none" stroke-linecap="round" stroke-linejoin="round" version="1.1" xmlns="http://www.w3.org/2000/svg" xmlns:xlink="http://www.w3.org/1999/xlink"><path stroke="none" d="M0 0h24v24H0z" fill="none"/><path d="M14 7h.01"/><path d="M10 7h.01"/><path d="M6 11c4 4 8 4 12 0"/><path d="M9 13.5V16"/><path d="M10.5 10c.667 1.333 2.333 1.333 3 0h-3z"/><path d="M16 21c1.5 0 3.065-1 1-3 4.442 2 1.987-4.5 1-7 0-4-1.558-8-6-8s-6 4-6 8c-.987 2.5-3.442 9 1 7-2.065 2-.5 3 1 3h8z"/></svg>