<?xml version="1.0" standalone="no"?><!DOCTYPE svg PUBLIC "-//W3C//DTD SVG 1.1//EN" "http://www.w3.org/Graphics/SVG/1.1/DTD/svg11.dtd"><svg stroke-width="1" viewBox="0 0 24 24" stroke="#00FF99" fill="none" stroke-linecap="round" stroke-linejoin="round" version="1.1" xmlns="http://www.w3.org/2000/svg" xmlns:xlink="http://www.w3.org/1999/xlink"><path stroke="none" d="M0 0h24v24H0z" fill="none"/><path d="M16 16V9c0-.566-.434-1-1-1H8L3 3h17c.566 0 1 .434 1 1v17l-5-5z"/><path d="M11.293 20.707 16 16H9a1 1 0 0 1-1-1V8l-4.707 4.707a1 1 0 0 0-.293.707V20a1 1 0 0 0 1 1h6.586a1 1 0 0 0 .707-.293z"/></svg>