<svg xmlns="http://www.w3.org/2000/svg" version="1.1" width="96" height="96" viewbox="0 0 96 96"><rect x="0" y="0" width="96" height="96" fill="#FFFFFF"></rect><g transform="translate(30.696, 64.392)"><path d="M25.82 0L25.25 0Q24.38-0.14 17.33-0.14 10.27-0.14 9.41 0L9.41 0 8.83 0 8.83-2.21 10.13-2.21Q11.9-2.21 12.43-2.26L12.43-2.26Q13.78-2.3 14.11-2.42 14.45-2.54 14.98-2.93L14.98-2.93 14.98-7.2 14.88-7.2Q14.83-7.25 14.11-7.34L14.11-7.34Q10.66-7.73 7.68-9.36L7.68-9.36Q3.55-11.66 2.74-15.22L2.74-15.22Q2.69-15.5 2.69-16.42L2.69-16.42Q2.69-17.28 2.74-17.57L2.74-17.57Q3.55-21.12 7.68-23.42L7.68-23.42Q10.66-25.06 14.11-25.44L14.11-25.44Q14.83-25.54 14.88-25.58L14.88-25.58 14.98-25.58 14.98-29.86Q14.69-30.1 14.57-30.17 14.45-30.24 14.16-30.34 13.87-30.43 13.51-30.46 13.15-30.48 12.43-30.53L12.43-30.53Q11.9-30.58 10.13-30.58L10.13-30.58 8.83-30.58 8.83-32.78 9.41-32.78Q10.27-32.64 17.33-32.64 24.38-32.64 25.25-32.78L25.25-32.78 25.82-32.78 25.82-30.58 24.53-30.58Q22.75-30.58 22.22-30.53L22.22-30.53Q20.88-30.48 20.5-30.36 20.11-30.24 19.73-29.86L19.73-29.86 19.73-25.58 20.4-25.49Q24.1-25.01 27.05-23.33 30-21.65 31.2-19.3L31.2-19.3Q31.92-17.95 31.92-16.42L31.92-16.42Q31.92-14.78 31.2-13.49L31.2-13.49Q30-11.14 27.05-9.46 24.1-7.78 20.4-7.3L20.4-7.3 19.73-7.2 19.73-2.93Q20.11-2.54 20.5-2.42 20.88-2.3 22.22-2.26L22.22-2.26Q22.75-2.21 24.53-2.21L24.53-2.21 25.82-2.21 25.82 0ZM8.16-16.42L8.16-16.42Q8.16-13.06 9.79-11.28 11.42-9.5 14.74-9.02L14.74-9.02 14.98-9.02 14.98-23.76 14.83-23.76Q14.35-23.76 13.39-23.47L13.39-23.47Q10.7-22.8 9.43-21.12 8.16-19.44 8.16-16.42ZM19.68-9.02L19.92-9.02Q23.23-9.55 24.84-11.28 26.45-13.01 26.45-16.42L26.45-16.42Q26.45-19.63 25.01-21.34 23.57-23.04 20.64-23.62L20.64-23.62Q20.02-23.71 19.92-23.76L19.92-23.76 19.68-23.76 19.68-9.02Z" fill="#404040"></path></g></svg>