<svg xmlns="http://www.w3.org/2000/svg" version="1.1" width="96" height="96" viewbox="0 0 96 96"><rect x="0" y="0" width="96" height="96" fill="#FFFFFF"></rect><g transform="translate(21.936, 64.392)"><path d="M12.82 0L12.82 0Q12.14 0 10.49-0.05 8.83-0.1 7.54-0.1L7.54-0.1Q4.08-0.1 3.26-0.05L3.26-0.05Q2.11 0 1.97-0.1L1.97-0.1Q1.68-0.19 1.68-0.53L1.68-0.53Q1.68-0.62 1.85-1.22 2.02-1.82 2.06-1.92L2.06-1.92Q2.16-2.21 3.12-2.21L3.12-2.21Q6.58-2.4 7.39-4.13L7.39-4.13Q7.58-4.42 10.73-17.02 13.87-29.62 13.87-30.19L13.87-30.19Q13.87-30.38 13.73-30.38L13.73-30.38Q13.68-30.38 13.63-30.38L13.63-30.38Q13.15-30.53 11.14-30.58L11.14-30.58Q9.94-30.58 9.7-30.65 9.46-30.72 9.36-30.96L9.36-30.96Q9.31-31.15 9.41-31.63L9.41-31.63Q9.7-32.59 9.84-32.69 9.98-32.78 14.74-32.78L14.74-32.78Q18.53-32.78 19.13-32.76 19.73-32.74 19.87-32.54L19.87-32.54Q19.92-32.35 21.65-19.03 23.38-5.71 23.38-5.62L23.38-5.62Q23.38-5.57 23.95-6.46 24.53-7.34 25.51-8.9 26.5-10.46 27.77-12.46 29.04-14.45 30.43-16.68 31.82-18.91 33.22-21.14 34.61-23.38 35.88-25.39 37.15-27.41 38.14-28.97 39.12-30.53 39.7-31.49L39.7-31.49 40.27-32.4Q40.32-32.45 40.44-32.54 40.56-32.64 40.61-32.69L40.61-32.69 40.9-32.78 45.5-32.78Q50.11-32.78 50.26-32.69L50.26-32.69Q50.45-32.54 50.45-32.26L50.45-32.26Q50.45-32.02 50.3-31.51 50.16-31.01 50.16-30.86L50.16-30.86Q49.97-30.58 48.38-30.58L48.38-30.58Q45.79-30.53 45.41-30.24L45.41-30.24Q45.22-30.14 45.07-29.9L45.07-29.9Q44.93-29.66 41.59-16.32 38.26-2.98 38.26-2.83L38.26-2.83Q38.26-2.5 38.4-2.45L38.4-2.45Q38.74-2.3 41.04-2.21L41.04-2.21 42.53-2.21Q42.82-1.78 42.82-1.68L42.82-1.68Q42.82-0.91 42.48-0.24L42.48-0.24Q42.24 0 41.71 0L41.71 0Q40.9 0 38.88-0.05 36.86-0.1 35.33-0.1L35.33-0.1Q33.84-0.1 31.9-0.07 29.95-0.05 29.23-0.05L29.23-0.05Q28.61-0.05 28.46-0.29L28.46-0.29Q28.37-0.43 28.51-1.2L28.51-1.2Q28.7-1.97 28.9-2.09 29.09-2.21 30-2.21L30-2.21Q31.3-2.21 32.88-2.35L32.88-2.35Q33.55-2.5 33.79-2.93L33.79-2.93Q33.89-3.12 35.62-9.96 37.34-16.8 39.02-23.52 40.7-30.24 40.7-30.29L40.7-30.29Q36.48-23.62 31.39-15.46L31.39-15.46 21.94-0.43Q21.5 0 20.78 0 20.06 0 19.92-0.34L19.92-0.34Q19.78-0.58 18.07-14.06 16.37-27.55 16.08-29.95L16.08-29.95Q9.6-4.03 9.6-3.79L9.6-3.79Q9.89-2.21 13.06-2.21L13.06-2.21 13.54-2.21Q13.82-1.97 13.87-1.78 13.92-1.58 13.73-0.91L13.73-0.91Q13.54-0.14 13.34-0.05L13.34-0.05Q13.15 0 12.82 0Z" fill="#404040"></path></g></svg>