<svg xmlns="http://www.w3.org/2000/svg" version="1.1" width="96" height="96" viewbox="0 0 96 96"><rect x="0" y="0" width="96" height="96" fill="#FFFFFF"></rect><g transform="translate(32.016, 64.248)"><path d="M2.26-24.43L2.26-24.43Q2.3-25.34 2.47-28.75 2.64-32.16 2.64-32.45L2.64-32.45Q2.64-32.5 15.98-32.5 29.33-32.5 29.33-32.45L29.33-32.45Q29.38-31.54 29.54-28.13 29.71-24.72 29.71-24.43L29.71-24.43Q29.71-24.38 28.75-24.38 27.79-24.38 27.79-24.48L27.79-24.48Q27.79-25.39 27.6-26.76 27.41-28.13 27.07-28.27L27.07-28.27Q26.4-28.51 15.98-28.51 5.57-28.51 4.9-28.27L4.9-28.27Q4.56-28.13 4.37-26.76 4.18-25.39 4.18-24.48L4.18-24.48Q4.18-24.38 3.22-24.38 2.26-24.38 2.26-24.43ZM8.59-12.48L6.67-12.48 6.67-21.36 8.59-21.36 8.59-18.91 23.38-18.91 23.38-21.36 25.3-21.36 25.3-12.48 23.38-12.48 23.38-14.93 8.59-14.93 8.59-12.48ZM29.57 0L2.4 0Q2.35-0.96 2.18-4.63 2.02-8.3 2.02-8.64L2.02-8.64 2.98-8.64Q3.94-8.64 3.94-8.54L3.94-8.54Q3.94-6.38 4.27-5.04L4.27-5.04Q4.42-4.46 4.56-4.32 4.7-4.18 5.18-4.13L5.18-4.13Q6.53-3.98 15.98-3.98 25.44-3.98 26.78-4.13L26.78-4.13Q27.26-4.18 27.41-4.32 27.55-4.46 27.7-5.04L27.7-5.04Q28.03-6.38 28.03-8.54L28.03-8.54Q28.03-8.64 28.99-8.64L28.99-8.64 29.95-8.64Q29.9-7.68 29.74-4.01 29.57-0.34 29.57 0L29.57 0Z" fill="#404040"></path></g></svg>