<?xml version="1.0" standalone="no"?><!DOCTYPE svg PUBLIC "-//W3C//DTD SVG 1.1//EN" "http://www.w3.org/Graphics/SVG/1.1/DTD/svg11.dtd"><svg stroke-width="1.5" viewBox="0 0 24 24" fill="#FF6A00" aria-hidden="true" version="1.1" xmlns="http://www.w3.org/2000/svg" xmlns:xlink="http://www.w3.org/1999/xlink"><path fill-rule="evenodd" d="M3 6a3 3 0 0 1 3-3h12a3 3 0 0 1 3 3v12a3 3 0 0 1-3 3H6a3 3 0 0 1-3-3V6zm4.5 7.5a.75.75 0 0 1 .75.75v2.25a.75.75 0 0 1-1.5 0v-2.25a.75.75 0 0 1 .75-.75zm3.75-1.5a.75.75 0 0 0-1.5 0v4.5a.75.75 0 0 0 1.5 0V12zm2.25-3a.75.75 0 0 1 .75.75v6.75a.75.75 0 0 1-1.5 0V9.75A.75.75 0 0 1 13.5 9zm3.75-1.5a.75.75 0 0 0-1.5 0v9a.75.75 0 0 0 1.5 0v-9z" clip-rule="evenodd"/></svg>