<svg xmlns="http://www.w3.org/2000/svg" version="1.1" width="96" height="96" viewbox="0 0 96 96"><rect x="0" y="0" width="96" height="96" fill="#FFFFFF"></rect><g transform="translate(29.351999999999997, 59.95199999999999)"><path d="M3.98-29.62L3.98-29.62Q3.98-29.9 4.2-30.22 4.42-30.53 4.75-30.53L4.75-30.53Q5.14-30.53 12.17-27.24 19.2-23.95 26.06-20.66 32.93-17.38 32.98-17.33L32.98-17.33Q33.31-17.09 33.31-16.61 33.31-16.13 32.98-15.89L32.98-15.89Q32.88-15.79 18.96-9.22L18.96-9.22 5.14-2.69 4.85-2.69Q3.98-2.78 3.98-3.65L3.98-3.65Q3.98-3.89 4.13-4.18L4.13-4.18Q4.32-4.42 18.14-10.94L18.14-10.94 30.05-16.61 4.32-28.85Q3.98-29.18 3.98-29.62ZM4.03 5.66L4.03 5.66Q4.03 5.14 4.75 4.7L4.75 4.7 32.54 4.7Q33.31 5.04 33.31 5.66L33.31 5.66Q33.31 6.24 32.59 6.62L32.59 6.62 4.7 6.62Q4.03 6.29 4.03 5.66Z" fill="#404040"></path></g></svg>