<svg xmlns="http://www.w3.org/2000/svg" version="1.1" width="96" height="96" viewbox="0 0 96 96"><rect x="0" y="0" width="96" height="96" fill="#FFFFFF"></rect><g transform="translate(24, 60.024)"><path d="M14.35-24.43L14.35-24.43Q14.59-25.06 14.74-25.15 14.88-25.25 15.5-25.25L15.5-25.25Q16.32-25.25 16.32-24.67L16.32-24.67Q16.32-24.34 16.13-23.95L16.13-23.95Q14.78-20.83 12.24-17.66L12.24-17.66Q12.24-17.62 24-17.62L24-17.62Q35.71-17.62 35.71-17.66L35.71-17.66Q35.57-17.86 35.38-18.05L35.38-18.05Q33.17-20.74 31.82-23.95L31.82-23.95Q31.58-24.53 31.58-24.72L31.58-24.72Q31.58-25.2 32.64-25.2L32.64-25.2Q32.98-25.15 33.12-25.1 33.26-25.06 33.36-24.91 33.46-24.77 33.65-24.34L33.65-24.34Q36.91-17.14 43.3-13.78L43.3-13.78Q44.88-12.86 45.84-12.58L45.84-12.58Q46.37-12.38 46.37-12 46.37-11.62 45.84-11.42L45.84-11.42Q44.88-11.14 43.3-10.22L43.3-10.22Q36.62-6.58 33.65 0.34L33.65 0.34Q33.46 0.77 33.36 0.91 33.26 1.06 33.12 1.1 32.98 1.15 32.64 1.2L32.64 1.2Q31.58 1.2 31.58 0.72L31.58 0.72Q31.58 0.53 31.82-0.05L31.82-0.05Q33.17-3.17 35.71-6.34L35.71-6.34Q35.71-6.38 24-6.38L24-6.38Q12.24-6.38 12.24-6.34L12.24-6.34Q12.38-6.14 12.58-5.95L12.58-5.95Q14.78-3.26 16.13-0.05L16.13-0.05Q16.37 0.53 16.37 0.72L16.37 0.72Q16.37 1.2 15.31 1.2L15.31 1.2Q14.98 1.15 14.83 1.1 14.69 1.06 14.59 0.91 14.5 0.77 14.3 0.34L14.3 0.34Q11.04-6.86 4.66-10.22L4.66-10.22Q3.07-11.14 2.11-11.42L2.11-11.42Q1.63-11.62 1.63-12 1.63-12.38 2.11-12.58L2.11-12.58Q3.07-12.86 4.66-13.78L4.66-13.78Q11.28-17.42 14.35-24.43ZM38.02-15.31L38.02-15.31 37.58-15.7 10.37-15.7Q8.69-14.02 5.76-12.29L5.76-12.29 5.28-12 5.76-11.71Q8.3-10.18 9.94-8.69L9.94-8.69 10.37-8.3 37.58-8.3 38.02-8.69Q39.65-10.18 42.19-11.71L42.19-11.71 42.67-12 42.19-12.29Q39.65-13.82 38.02-15.31Z" fill="#404040"></path></g></svg>