<svg xmlns="http://www.w3.org/2000/svg" version="1.1" width="96" height="96" viewbox="0 0 96 96"><rect x="0" y="0" width="96" height="96" fill="#FFFFFF"></rect><g transform="translate(30.671999999999997, 64.632)"><path d="M31.25 0L20.93 0Q20.69 0.96 19.97 0.96L19.97 0.96Q19.2 0.96 19.01 0.19L19.01 0.19 19.01 0 3.41 0Q2.64-0.34 2.64-0.96L2.64-0.96Q2.64-1.06 2.74-1.34L2.74-1.34Q3.07-1.82 16.7-17.93 30.34-34.03 30.62-34.18L30.62-34.18Q30.72-34.22 30.96-34.22L30.96-34.22Q31.34-34.22 31.68-33.96 32.02-33.7 32.02-33.31L32.02-33.31Q32.02-33.02 31.82-32.78L31.82-32.78Q31.58-32.54 23.81-23.33 16.03-14.11 15.79-13.87L15.79-13.87Q15.74-13.82 16.22-13.2L16.22-13.2Q19.97-8.59 20.78-2.59L20.78-2.59 20.83-1.92 31.25-1.92Q31.97-1.54 31.97-0.96 31.97-0.38 31.25 0L31.25 0ZM18.58-3.98L18.58-3.98Q17.42-8.83 14.5-12.29L14.5-12.29Q13.01-10.56 10.08-7.13 7.15-3.7 5.71-1.97L5.71-1.97 12.29-1.92 18.91-1.92Q18.91-2.4 18.58-3.98Z" fill="#404040"></path></g></svg>