<svg xmlns="http://www.w3.org/2000/svg" version="1.1" width="96" height="96" viewbox="0 0 96 96"><rect x="0" y="0" width="96" height="96" fill="#FFFFFF"></rect><g transform="translate(23.951999999999998, 60.411870967741926)"><path d="M8.11-17.33L8.11-17.33Q8.11-18.05 8.78-18.29L8.78-18.29 39.26-18.29Q39.94-18.05 39.98-17.33L39.98-17.33Q39.94-16.7 39.31-16.42L39.31-16.42 24.1-16.37 8.88-16.37Q8.11-16.56 8.11-17.33ZM8.11-8.06L8.11-8.06Q8.11-8.83 8.88-9.02L8.88-9.02 39.31-9.02Q39.41-8.93 39.55-8.83L39.55-8.83Q39.65-8.74 39.79-8.64L39.79-8.64Q39.84-8.54 39.94-8.4L39.94-8.4Q39.98-8.26 39.98-8.06L39.98-8.06Q39.94-7.34 39.26-7.1L39.26-7.1 8.78-7.1Q8.11-7.34 8.11-8.06ZM22.56-12.34L36.34-26.06Q37.2-26.4 37.61-25.99 38.02-25.58 37.68-24.72L37.68-24.72 23.9-10.99 11.76 1.2Q11.23 1.58 10.66 1.2L10.66 1.2Q10.32 0.96 10.25 0.55 10.18 0.14 10.42-0.19L10.42-0.19 22.56-12.34Z" fill="#404040"></path></g></svg>