<svg xmlns="http://www.w3.org/2000/svg" version="1.1" width="96" height="96" viewbox="0 0 96 96"><rect x="0" y="0" width="96" height="96" fill="#FFFFFF"></rect><g transform="translate(33.793875, 58.080000000000005)"><path d="M20.69-1.78L20.69-1.78Q20.69-0.96 19.99-0.24 19.3 0.48 18.29 0.48L18.29 0.48Q17.57 0.48 17.3 0.29 17.04 0.1 16.75-0.48L16.75-0.48Q15.84-2.59 15.84-5.81L15.84-5.81Q15.84-7.54 15.89-8.11L15.89-8.11Q16.22-11.42 17.38-16.13L17.38-16.13Q17.62-17.09 17.62-17.18L17.62-17.18 12.91-17.18 12.86-16.99Q12.86-16.94 12.77-16.58 12.67-16.22 12.5-15.53 12.34-14.83 12.19-14.26L12.19-14.26Q9.02-1.92 8.4-0.82L8.4-0.82Q7.82 0.53 6.34 0.53L6.34 0.53Q5.23 0.53 4.8-0.29L4.8-0.29Q4.7-0.53 4.7-1.06L4.7-1.06 4.7-1.58 5.33-2.93Q8.93-10.51 10.56-16.03L10.56-16.03 10.94-17.18 9.41-17.18Q7.49-17.18 6.74-17.04 6-16.9 4.94-16.13L4.94-16.13Q3.79-15.41 2.93-14.16L2.93-14.16Q2.69-13.78 2.54-13.7 2.4-13.63 1.82-13.63L1.82-13.63Q1.06-13.63 0.91-13.97L0.91-13.97Q0.86-14.21 1.39-15.07L1.39-15.07Q4.7-20.11 7.87-20.59L7.87-20.59Q8.21-20.69 18.67-20.69L18.67-20.69Q26.35-20.69 26.54-20.64L26.54-20.64Q27.5-20.3 27.5-19.3L27.5-19.3Q27.5-17.81 25.97-17.28L25.97-17.28Q25.68-17.18 22.66-17.18L22.66-17.18 19.58-17.18 19.44-16.37Q18.86-12.91 18.86-10.66L18.86-10.66Q18.86-6.38 20.35-2.93L20.35-2.93Q20.69-2.06 20.69-1.78Z" fill="#404040"></path></g></svg>