<svg xmlns="http://www.w3.org/2000/svg" version="1.1" width="96" height="96" viewbox="0 0 96 96"><rect x="0" y="0" width="96" height="96" fill="#FFFFFF"></rect><g transform="translate(29.328, 63.96)"><path d="M3.36-15.02Q2.69-15.36 2.69-15.98 2.69-16.61 3.36-16.94L3.36-16.94 17.71-16.94 17.71-24.1Q17.71-31.25 17.81-31.44L17.81-31.44Q18.1-31.92 18.67-31.92L18.67-31.92Q19.1-31.92 19.34-31.68 19.58-31.44 19.61-30.55 19.63-29.66 19.63-24L19.63-24 19.63-16.94 33.94-16.94Q34.66-16.61 34.66-15.98 34.66-15.36 33.94-15.02L33.94-15.02 19.63-15.02 19.63-1.92 33.94-1.92Q34.66-1.54 34.66-0.96 34.66-0.38 33.94 0L33.94 0 3.36 0Q2.69-0.34 2.69-0.96 2.69-1.58 3.36-1.92L3.36-1.92 17.71-1.92 17.71-15.02 3.36-15.02Z" fill="#404040"></path></g></svg>