<svg xmlns="http://www.w3.org/2000/svg" version="1.1" width="96" height="96" viewbox="0 0 96 96"><rect x="0" y="0" width="96" height="96" fill="#FFFFFF"></rect><g transform="translate(29.328, 62.352)"><path d="M34.7-9.79L34.7-9.79Q34.7-4.85 33.14-1.92 31.58 1.01 28.32 1.01L28.32 1.01Q25.82 1.01 24.14 0.02 22.46-0.96 22.13-2.59L22.13-2.59Q22.03-2.98 22.03-3.17L22.03-3.17 22.03-3.36 19.63-3.36 19.63-2.98Q19.63 0.62 20.74 4.27L20.74 4.27Q20.98 5.14 20.98 5.38L20.98 5.38Q20.98 5.81 20.45 6.14L20.45 6.14Q20.26 6.24 18.67 6.24 17.09 6.24 16.9 6.14L16.9 6.14Q16.37 5.81 16.37 5.33L16.37 5.33Q16.37 5.09 16.61 4.27L16.61 4.27Q17.71 0.62 17.71-2.98L17.71-2.98 17.71-3.36 15.31-3.36 15.31-3.17Q15.31-1.73 14.11-0.62L14.11-0.62Q12.34 1.01 9.17 1.01L9.17 1.01 8.69 1.01Q7.92 1.01 7.06 0.72L7.06 0.72Q5.47 0.05 4.61-1.3L4.61-1.3Q2.78-4.08 2.64-9.26L2.64-9.26Q2.64-10.94 2.88-12.19L2.88-12.19Q3.5-15.46 5.57-18.1 7.63-20.74 11.23-23.9L11.23-23.9Q15.17-27.55 17.57-33.79L17.57-33.79Q17.86-34.46 18.05-34.7 18.24-34.94 18.72-34.94L18.72-34.94Q19.25-34.94 19.78-33.79L19.78-33.79Q22.18-27.55 26.11-23.9L26.11-23.9Q30.34-20.21 32.16-17.47L32.16-17.47Q34.32-14.3 34.66-11.04L34.66-11.04Q34.7-10.75 34.7-9.79Z" fill="#404040"></path></g></svg>